<svg width="296" height="58" viewBox="0 0 296 58" fill="none" xmlns="http://www.w3.org/2000/svg">
<path d="M42.56 45.1311V45.8811H46.87V57.3211H47.75V45.8811H52.03V45.1311H42.56ZM32.08 57.3211H32.88C32.9132 57.3225 32.9464 57.317 32.9774 57.305C33.0083 57.2929 33.0365 57.2746 33.06 57.2511C33.1142 57.2087 33.1614 57.1581 33.2 57.1011L36.97 51.7411C37.0278 51.6675 37.0688 51.5822 37.09 51.4911L40.93 57.1011C40.9637 57.1558 41.0041 57.2061 41.05 57.2511C41.0747 57.2759 41.1044 57.295 41.1373 57.3071C41.1701 57.3192 41.2051 57.324 41.24 57.3211H42.11L37.72 51.0211L41.93 45.1311H41.09C41.0622 45.1301 41.0345 45.1349 41.0087 45.1452C40.9828 45.1556 40.9595 45.1712 40.94 45.1911L40.83 45.3211L37.26 50.3811L37.18 50.5111V50.6511L33.48 45.3111C33.4518 45.2671 33.4182 45.2268 33.38 45.1911C33.3557 45.1694 33.3271 45.1528 33.2962 45.1425C33.2652 45.1322 33.2325 45.1283 33.2 45.1311H32.33L36.53 51.0711L32.08 57.3211ZM30.85 46.2211C30.4608 45.8243 29.9946 45.5112 29.48 45.3011C28.9339 45.0946 28.3538 44.9928 27.77 45.0011C27.2578 44.9891 26.7483 45.0775 26.27 45.2611C25.8568 45.4175 25.4792 45.6556 25.16 45.9611C24.8637 46.2413 24.6317 46.5825 24.48 46.9611C24.3245 47.3349 24.2463 47.7362 24.25 48.1411C24.231 48.589 24.3201 49.0349 24.51 49.4411C24.6744 49.7775 24.9098 50.0744 25.2 50.3111C25.5022 50.5538 25.8393 50.7493 26.2 50.8911C26.57 51.0411 26.94 51.1711 27.33 51.2911L28.45 51.6611C28.8016 51.7756 29.1375 51.9335 29.45 52.1311C29.7306 52.3118 29.9693 52.5505 30.15 52.8311C30.3333 53.1535 30.4233 53.5205 30.41 53.8911C30.4122 54.2744 30.3409 54.6546 30.2 55.0111C30.062 55.3481 29.858 55.6541 29.6 55.9111C29.3107 56.1767 28.9705 56.3809 28.6 56.5111C28.1864 56.6603 27.7496 56.7348 27.31 56.7311C26.9933 56.7338 26.6775 56.6969 26.37 56.6211C26.1162 56.5605 25.8685 56.4768 25.63 56.3711C25.433 56.2797 25.2454 56.1692 25.07 56.0411C24.91 55.9211 24.77 55.8111 24.66 55.7111L24.37 55.4611C24.3165 55.4061 24.246 55.3709 24.17 55.3611C24.1226 55.3622 24.0761 55.3746 24.0344 55.3972C23.9926 55.4198 23.9569 55.452 23.93 55.4911L23.69 55.8611C24.1101 56.3523 24.6277 56.7507 25.21 57.0311C25.8603 57.3347 26.5726 57.482 27.29 57.4611C27.8534 57.4695 28.4133 57.3711 28.94 57.1711C29.3965 56.9942 29.8118 56.7253 30.16 56.3811C30.4941 56.0499 30.7532 55.6509 30.92 55.2111C31.1007 54.7491 31.1923 54.2571 31.19 53.7611C31.2042 53.3285 31.1115 52.8992 30.92 52.5111C30.7383 52.1941 30.4891 51.921 30.19 51.7111C29.8864 51.4731 29.5494 51.2811 29.19 51.1411C28.83 50.9911 28.45 50.8511 28.06 50.7211L26.94 50.3411C26.588 50.2232 26.2521 50.062 25.94 49.8611C25.6627 49.6838 25.4273 49.4484 25.25 49.1711C25.064 48.8714 24.9701 48.5237 24.98 48.1711C24.9787 47.8588 25.0399 47.5494 25.16 47.2611C25.2801 46.9751 25.457 46.7166 25.68 46.5011C25.926 46.2754 26.2151 46.1019 26.53 45.9911C26.9047 45.8552 27.3016 45.7908 27.7 45.8011C28.0765 45.7899 28.452 45.844 28.81 45.9611C29.0765 46.0511 29.3316 46.1719 29.57 46.3211C29.7367 46.4283 29.897 46.5452 30.05 46.6711C30.1241 46.7578 30.2271 46.8147 30.34 46.8311C30.3863 46.8314 30.4316 46.8184 30.4707 46.7936C30.5097 46.7687 30.5407 46.7331 30.56 46.6911L30.85 46.2211ZM19.4 45.1311H18.62C18.5487 45.1296 18.4787 45.1506 18.42 45.1911C18.3692 45.2354 18.3283 45.2899 18.3 45.3511L14.82 50.9511C14.74 51.0811 14.67 51.2111 14.61 51.3311C14.55 51.4511 14.5 51.5811 14.45 51.7011C14.4087 51.5744 14.3585 51.4508 14.3 51.3311C14.24 51.2111 14.17 51.0811 14.09 50.9511L10.61 45.3511C10.5678 45.2909 10.5173 45.2371 10.46 45.1911C10.4057 45.1493 10.3384 45.128 10.27 45.1311H9.5L14.01 52.2911V57.2911H14.89V52.2911L19.4 45.1311ZM0.940002 45.8311H3.56001C4.41131 45.7643 5.26027 45.9863 5.97 46.4611C6.23536 46.6916 6.44383 46.9803 6.57914 47.3047C6.71445 47.6291 6.77292 47.9803 6.75 48.3311C6.75028 48.6465 6.68914 48.959 6.57 49.2511C6.44558 49.5589 6.25029 49.833 6 50.0511C5.71207 50.3115 5.37081 50.506 5 50.6211C4.53573 50.7746 4.04895 50.849 3.56001 50.8411H0.940002V45.8311ZM4 51.4811C4.4622 51.4765 4.92294 51.5337 5.37 51.6511C5.73172 51.7536 6.07095 51.9232 6.37 52.1511C6.63801 52.3583 6.85377 52.6255 7 52.9311C7.14563 53.2443 7.22073 53.5857 7.22 53.9311C7.24927 54.3053 7.19033 54.6813 7.04791 55.0286C6.9055 55.376 6.68358 55.6851 6.4 55.9311C5.69717 56.4414 4.83613 56.6859 3.97 56.6211H0.970001V51.4911L4 51.4811ZM4 57.3211C4.58801 57.3279 5.17396 57.2504 5.74001 57.0911C6.2106 56.9616 6.64964 56.7369 7.03 56.4311C7.38004 56.1532 7.65505 55.7923 7.83 55.3811C8.02326 54.9436 8.11881 54.4692 8.11 53.9911C8.13053 53.6213 8.07152 53.2515 7.93697 52.9065C7.80241 52.5615 7.59544 52.2493 7.33 51.9911C6.71074 51.4512 5.93786 51.119 5.12 51.0411C5.47341 50.9499 5.81068 50.8048 6.12 50.6111C6.41398 50.4347 6.6774 50.2118 6.9 49.9511C7.32216 49.4615 7.55615 48.8375 7.56001 48.1911C7.56909 47.745 7.4839 47.302 7.31001 46.8911C7.15309 46.4998 6.89827 46.1555 6.57 45.8911C6.19493 45.6057 5.76652 45.3983 5.31001 45.2811C4.71867 45.131 4.10998 45.0604 3.5 45.0711H0V57.2611L4 57.3211Z" fill="#E3E3E3"/>
<path d="M31.2104 4.98444C28.1456 3.98934 24.8593 3.89559 21.7427 4.71433C18.6261 5.53306 15.8102 7.22983 13.6301 9.60277C11.45 11.9757 9.99743 14.925 9.44516 18.0997C8.89289 21.2744 9.2642 24.5409 10.5149 27.5107C11.7656 30.4804 13.843 33.0284 16.5001 34.8515C19.1571 36.6746 22.282 37.6962 25.5029 37.7945C28.7237 37.8929 31.9051 37.064 34.6684 35.4064C37.4318 33.7488 39.6609 31.3323 41.0904 28.4444" stroke="#E3E3E3" stroke-width="0.68" stroke-linecap="round" stroke-linejoin="round"/>
<path d="M42.7004 32.0044C44.8232 28.7828 45.9689 25.0158 45.9994 21.1577C46.0298 17.2997 44.9437 13.5151 42.8719 10.2604C40.8001 7.00561 37.8311 4.41957 34.3228 2.81402C30.8146 1.20846 26.9168 0.651911 23.0994 1.21147C19.282 1.77103 15.7079 3.42281 12.808 5.96768C9.90811 8.51255 7.8062 11.8419 6.75567 15.5543C5.70514 19.2667 5.75082 23.2038 6.88722 26.8908C8.02362 30.5779 10.2022 33.8575 13.1604 36.3344" stroke="#E3E3E3" stroke-width="0.68" stroke-linecap="round" stroke-linejoin="round"/>
<path d="M14.6104 13.4344C13.1425 15.6476 12.3506 18.2402 12.3312 20.8959C12.3119 23.5515 13.0659 26.1554 14.5014 28.3898C15.9368 30.6242 17.9916 32.3924 20.415 33.4788C22.8383 34.5651 25.5255 34.9226 28.1486 34.5076C30.7717 34.0926 33.2173 32.923 35.187 31.1416C37.1567 29.3603 38.5652 27.0441 39.2408 24.4757C39.9164 21.9074 39.8298 19.1979 38.9916 16.6779C38.1534 14.1579 36.5998 11.9364 34.5204 10.2844" stroke="#E3E3E3" stroke-width="0.68" stroke-linecap="round" stroke-linejoin="round"/>
<path d="M26.0104 31.0044C24.1541 31.0052 22.3448 30.4202 20.8403 29.3328C19.3358 28.2455 18.2127 26.7111 17.631 24.9483C17.0493 23.1854 17.0386 21.284 17.6005 19.5147C18.1624 17.7455 19.2682 16.1986 20.7604 15.0944C20.8784 15.0098 21.012 14.9494 21.1534 14.9167C21.2949 14.8839 21.4414 14.8795 21.5846 14.9037C21.7277 14.9279 21.8647 14.9801 21.9875 15.0575C22.1104 15.1348 22.2167 15.2358 22.3004 15.3544C22.4703 15.594 22.5392 15.8907 22.4925 16.1806C22.4457 16.4705 22.287 16.7304 22.0504 16.9044C20.9415 17.7396 20.1237 18.9026 19.713 20.2286C19.3022 21.5547 19.3194 22.9764 19.762 24.2921C20.2047 25.6078 21.0503 26.7508 22.179 27.5589C23.3077 28.3671 24.6622 28.7993 26.0504 28.7944C27.4386 28.7993 28.7931 28.3671 29.9218 27.5589C31.0505 26.7508 31.8962 25.6078 32.3388 24.2921C32.7814 22.9764 32.7986 21.5547 32.3878 20.2286C31.9771 18.9026 31.1593 17.7396 30.0504 16.9044C29.8123 16.7319 29.6515 16.4727 29.6029 16.1827C29.5542 15.8927 29.6216 15.5952 29.7904 15.3544C29.8741 15.2358 29.9804 15.1348 30.1033 15.0575C30.2261 14.9801 30.3631 14.9279 30.5063 14.9037C30.6494 14.8795 30.796 14.8839 30.9374 14.9167C31.0788 14.9494 31.2124 15.0098 31.3304 15.0944C32.8233 16.1991 33.9294 17.7469 34.4911 19.5171C35.0527 21.2874 35.0412 23.1897 34.4583 24.953C33.8753 26.7163 32.7506 28.2507 31.2444 29.3373C29.7383 30.4239 27.9276 31.0073 26.0704 31.0044H26.0104Z" fill="#E3E3E3"/>
<path d="M27.1004 11.9744C27.0746 11.7072 26.9502 11.4592 26.7515 11.2787C26.5527 11.0982 26.2939 10.9982 26.0254 10.9982C25.757 10.9982 25.4981 11.0982 25.2994 11.2787C25.1006 11.4592 24.9762 11.7072 24.9504 11.9744V18.7344C24.9762 19.0016 25.1006 19.2497 25.2994 19.4302C25.4981 19.6106 25.757 19.7106 26.0254 19.7106C26.2939 19.7106 26.5527 19.6106 26.7515 19.4302C26.9502 19.2497 27.0746 19.0016 27.1004 18.7344V11.9744Z" fill="#E3E3E3"/>
<path d="M290.702 5.87595H291.191C291.769 5.87595 292.188 5.67561 292.188 5.19479C292.188 4.71396 291.889 4.49358 291.191 4.49358C290.999 4.4756 290.805 4.4756 290.613 4.49358L290.702 5.87595ZM290.702 8.50044H289.706V3.87252C290.278 3.76678 290.859 3.71979 291.44 3.73228C291.984 3.68614 292.529 3.80476 293.005 4.07287C293.148 4.19652 293.261 4.35061 293.337 4.52391C293.413 4.6972 293.449 4.88534 293.444 5.07458C293.427 5.33057 293.328 5.57405 293.16 5.76766C292.993 5.96128 292.767 6.09433 292.517 6.14642V6.20652C292.743 6.29879 292.94 6.45263 293.084 6.65079C293.228 6.84895 293.315 7.0836 293.334 7.32844C293.38 7.73235 293.495 8.12534 293.673 8.49043H292.457C292.286 8.13135 292.166 7.7505 292.098 7.35849C292.018 6.84762 291.749 6.62724 291.171 6.62724H290.673L290.702 8.50044ZM287.891 6.10635C287.873 6.58332 287.95 7.05921 288.118 7.50564C288.286 7.95207 288.542 8.3599 288.87 8.70484C289.199 9.04977 289.593 9.32474 290.029 9.51335C290.465 9.70196 290.935 9.80036 291.41 9.80268C292.354 9.75333 293.243 9.34183 293.893 8.65311C294.544 7.96439 294.907 7.05097 294.907 6.10134C294.907 5.1517 294.544 4.23829 293.893 3.54957C293.243 2.86084 292.354 2.44935 291.41 2.4C290.937 2.40768 290.47 2.5102 290.036 2.70156C289.603 2.89293 289.212 3.16929 288.886 3.51445C288.56 3.85961 288.306 4.26664 288.139 4.7117C287.971 5.15676 287.894 5.6309 287.911 6.10635M296.025 6.10635C296.031 7.02971 295.764 7.93402 295.257 8.70439C294.751 9.47477 294.028 10.0765 293.18 10.433C292.333 10.7896 291.399 10.885 290.497 10.707C289.595 10.5291 288.767 10.0858 288.116 9.4336C287.466 8.78137 287.023 7.94959 286.844 7.04389C286.665 6.1382 286.758 5.19948 287.111 4.34694C287.464 3.49441 288.061 2.76654 288.826 2.2558C289.592 1.74505 290.491 1.47447 291.41 1.47842C292.015 1.47576 292.615 1.59372 293.174 1.82548C293.734 2.05723 294.242 2.39818 294.669 2.82859C295.096 3.259 295.435 3.77031 295.664 4.33294C295.893 4.89556 296.009 5.49833 296.006 6.10635" fill="#E3E3E3"/>
<path d="M202.265 3.37167C202.275 3.10889 202.23 2.84684 202.133 2.60274C202.036 2.35865 201.888 2.13803 201.7 1.95541C201.511 1.7728 201.287 1.63231 201.04 1.54319C200.794 1.45407 200.532 1.41834 200.271 1.43835H176.696C176.186 1.43835 175.697 1.64204 175.336 2.00461C174.975 2.36717 174.772 2.85892 174.772 3.37167C174.772 3.88441 174.975 4.37616 175.336 4.73872C175.697 5.10129 176.186 5.30498 176.696 5.30498H182.308C184.88 5.30498 186.355 6.93777 186.355 9.78264V54.3389C186.355 55.7614 187.093 56.5728 188.349 56.5728H188.628C189.914 56.5728 190.622 55.7614 190.622 54.3389V9.78264C190.622 6.93777 192.087 5.30498 194.669 5.30498H200.181C200.443 5.32663 200.706 5.29203 200.952 5.2035C201.199 5.11498 201.425 4.97455 201.613 4.79159C201.802 4.60863 201.95 4.38734 202.047 4.14249C202.143 3.89764 202.187 3.63486 202.175 3.37167" fill="#E3E3E3"/>
<path d="M232.279 28.9956C232.3 28.7448 232.268 28.4924 232.185 28.2549C232.103 28.0174 231.971 27.8002 231.798 27.6176C231.626 27.4349 231.417 27.291 231.186 27.1953C230.954 27.0996 230.705 27.0543 230.455 27.0622H222.48C220.108 27.0622 218.752 25.4395 218.752 22.5946V17.4057C218.752 11.6058 221.972 5.91603 227.474 5.91603H237.054C239.207 5.91603 239.207 1.44838 237.054 1.44838H227.464C219.839 1.44838 214.755 8.97126 214.755 17.4057V40.6154C214.755 49.0499 219.839 56.5728 227.464 56.5728H237.044C239.197 56.5728 239.197 52.1051 237.044 52.1051H227.464C221.962 52.1051 218.742 46.4154 218.742 40.6154V35.4266C218.742 32.5817 220.098 30.9589 222.47 30.9589H230.445C230.687 30.9728 230.929 30.9362 231.156 30.8513C231.384 30.7664 231.591 30.6351 231.765 30.4657C231.939 30.2963 232.077 30.0924 232.168 29.867C232.26 29.6415 232.305 29.3994 232.299 29.1558V28.9956" fill="#E3E3E3"/>
<path d="M159.033 41.1664C159.033 46.756 155.653 52.2454 149.892 52.2454C144.13 52.2454 140.741 46.766 140.741 41.1664V16.8447C140.741 11.2552 144.12 5.75575 149.892 5.75575C155.663 5.75575 159.033 11.2552 159.033 16.8447V41.1664ZM163.209 41.1664V16.8447C163.209 8.70079 157.876 1.43835 149.892 1.43835C141.907 1.43835 136.574 8.70079 136.574 16.8447V41.1664C136.574 49.3103 141.897 56.5628 149.892 56.5628C157.886 56.5628 163.209 49.3103 163.209 41.1664Z" fill="#E3E3E3"/>
<path d="M123.107 49.3203C123.359 48.8234 123.436 48.255 123.323 47.7087C123.211 47.1625 122.917 46.671 122.489 46.3152C122.272 46.1546 122.022 46.0442 121.757 45.9919C121.492 45.9396 121.219 45.9467 120.957 46.0127C120.695 46.0788 120.451 46.2021 120.242 46.3738C120.033 46.5456 119.864 46.7616 119.748 47.0064C118.323 49.2602 116.11 52.2954 111.684 52.2954C105.922 52.2954 102.553 46.806 102.553 41.2165V16.8447C102.553 11.2552 105.922 5.75575 111.684 5.75575C116.11 5.75575 118.243 8.7609 119.569 11.0548C119.692 11.2942 119.866 11.5033 120.079 11.667C120.292 11.8306 120.538 11.9448 120.8 12.0013C121.062 12.0579 121.334 12.0553 121.595 11.9938C121.856 11.9324 122.1 11.8135 122.31 11.6458C122.737 11.2903 123.032 10.7995 123.147 10.2536C123.261 9.7077 123.187 9.13909 122.938 8.64069C121.939 6.49078 120.349 4.6735 118.354 3.40412C116.359 2.13474 114.045 1.46646 111.684 1.47843C103.709 1.47843 98.3862 8.74087 98.3862 16.8848V41.1664C98.3862 49.3103 103.709 56.5627 111.684 56.5627C114.08 56.5847 116.432 55.9123 118.458 54.6261C120.484 53.3399 122.098 51.4944 123.107 49.3103" fill="#E3E3E3"/>
<path d="M85.916 40.4852C85.916 31.5599 79.2672 25.9703 71.6316 24.6881C71.6316 24.6881 63.3879 22.6847 63.3879 14.671C63.3879 12.0164 65.0725 5.65553 71.7213 5.65553C72.8292 5.64763 73.9277 5.85946 74.954 6.27888C75.9803 6.69829 76.9142 7.31705 77.7022 8.09971C78.8585 9.10143 79.9251 9.10143 80.6926 8.30006C81.0667 7.88993 81.2742 7.35381 81.2742 6.79748C81.2742 6.24115 81.0667 5.70503 80.6926 5.29491C79.524 4.09173 78.1291 3.13388 76.589 2.47698C75.049 1.82009 73.3943 1.47724 71.7213 1.46835C63.5673 1.4383 59.3906 8.70074 59.3906 14.691C59.3906 21.7531 63.4776 27.8335 71.7213 28.9154C71.7213 28.9154 81.6895 31.1692 81.7493 40.4852C81.839 45.1932 78.2903 52.2553 71.7213 52.2553C67.6443 52.2553 64.3647 49.3203 62.411 46.3752C62.2905 46.1426 62.1187 45.9407 61.9088 45.7849C61.6989 45.629 61.4563 45.5234 61.1996 45.4761C60.9429 45.4287 60.6789 45.4409 60.4275 45.5117C60.1762 45.5824 59.9443 45.7099 59.7495 45.8844C59.3423 46.2597 59.0823 46.769 59.0165 47.3202C58.9507 47.8715 59.0834 48.4281 59.3906 48.8896C61.5238 52.7161 65.8699 56.5427 71.7213 56.5427C80.0646 56.5427 85.916 48.5289 85.916 40.4551" fill="#E3E3E3"/>
<path d="M266.141 37.0093C266.958 37.0093 267.776 37.8006 268.414 39.193L275.461 54.389C276.019 55.5911 276.847 56.5728 277.963 56.5728C279.638 56.5728 280.465 55.4809 279.727 53.6277L270.547 32.0808C270.187 31.2374 269.987 30.3336 269.959 29.4163V28.6049C269.987 27.6876 270.187 26.7838 270.547 25.9403L279.727 4.39342C280.465 2.54024 279.638 1.43835 277.963 1.43835C276.847 1.43835 276.019 2.44007 275.461 3.63211L268.414 18.8281C267.776 20.2205 266.958 20.9818 266.141 21.0119H266.041C265.224 21.0119 264.406 20.2205 263.778 18.8281L256.721 3.63211C256.173 2.43005 255.335 1.43835 254.219 1.43835C252.554 1.43835 251.717 2.54024 252.454 4.39342L261.645 25.9403C262 26.7853 262.2 27.6882 262.233 28.6049V29.4163C262.2 30.3329 262 31.2358 261.645 32.0808L252.454 53.6277C251.717 55.4809 252.554 56.5728 254.219 56.5728C255.335 56.5728 256.212 55.571 256.721 54.389L263.778 39.163C264.406 37.7706 265.224 37.0093 266.041 36.9792H266.141" fill="#E3E3E3"/>
<path d="M271.434 12.307L268.443 18.8281C267.805 20.2205 266.988 20.9818 266.171 21.0119H266.071C265.254 21.0119 264.436 20.2205 263.808 18.8281L260.818 12.307L257.887 16.9649L261.715 25.9804C262.069 26.8292 262.268 27.7352 262.303 28.655V29.4663C262.269 30.383 262.07 31.2859 261.715 32.1309L257.887 41.0963L260.818 45.7542L263.808 39.2431C264.436 37.8507 265.254 37.0794 266.071 37.0493H266.171C266.988 37.0493 267.805 37.8507 268.443 39.2431L271.434 45.7542L274.365 41.0963L270.547 32.1309C270.187 31.2875 269.987 30.3837 269.959 29.4663V28.655C269.988 27.7345 270.188 26.8277 270.547 25.9804L274.365 16.9649" fill="#AFC410"/>
</svg>
