<svg width="42" height="39" viewBox="0 0 42 39" fill="none" xmlns="http://www.w3.org/2000/svg">
<path d="M26.2104 4.98444C23.1456 3.98934 19.8593 3.89559 16.7427 4.71433C13.6261 5.53306 10.8102 7.22983 8.63011 9.60277C6.45001 11.9757 4.99743 14.925 4.44516 18.0997C3.89289 21.2744 4.2642 24.5409 5.51489 27.5107C6.76559 30.4804 8.84303 33.0284 11.5001 34.8515C14.1571 36.6746 17.282 37.6962 20.5029 37.7945C23.7237 37.8929 26.9051 37.064 29.6684 35.4064C32.4318 33.7488 34.6609 31.3323 36.0904 28.4444" stroke="black" stroke-width="0.68" stroke-linecap="round" stroke-linejoin="round"/>
<path d="M37.7004 32.0044C39.8232 28.7828 40.9689 25.0158 40.9994 21.1577C41.0298 17.2997 39.9437 13.5151 37.8719 10.2604C35.8001 7.00561 32.8311 4.41957 29.3228 2.81402C25.8146 1.20846 21.9168 0.651911 18.0994 1.21147C14.282 1.77103 10.7079 3.42281 7.808 5.96768C4.90811 8.51255 2.8062 11.8419 1.75567 15.5543C0.705137 19.2667 0.750824 23.2038 1.88722 26.8908C3.02362 30.5779 5.20222 33.8575 8.16039 36.3344" stroke="black" stroke-width="0.68" stroke-linecap="round" stroke-linejoin="round"/>
<path d="M9.61041 13.4344C8.14253 15.6476 7.3506 18.2402 7.33124 20.8959C7.31187 23.5515 8.06592 26.1554 9.50136 28.3898C10.9368 30.6242 12.9916 32.3924 15.415 33.4788C17.8383 34.5651 20.5255 34.9226 23.1486 34.5076C25.7717 34.0926 28.2173 32.923 30.187 31.1416C32.1567 29.3603 33.5652 27.0441 34.2408 24.4757C34.9164 21.9074 34.8298 19.1979 33.9916 16.6779C33.1534 14.1579 31.5998 11.9364 29.5204 10.2844" stroke="black" stroke-width="0.68" stroke-linecap="round" stroke-linejoin="round"/>
<path d="M21.0104 31.0044C19.1541 31.0052 17.3448 30.4202 15.8403 29.3328C14.3358 28.2455 13.2127 26.7111 12.631 24.9483C12.0493 23.1854 12.0386 21.284 12.6005 19.5147C13.1624 17.7455 14.2682 16.1986 15.7604 15.0944C15.8784 15.0098 16.012 14.9494 16.1534 14.9167C16.2949 14.8839 16.4414 14.8795 16.5846 14.9037C16.7277 14.9279 16.8647 14.9801 16.9875 15.0575C17.1104 15.1348 17.2167 15.2358 17.3004 15.3544C17.4703 15.594 17.5392 15.8907 17.4925 16.1806C17.4457 16.4705 17.287 16.7304 17.0504 16.9044C15.9415 17.7396 15.1237 18.9026 14.713 20.2286C14.3022 21.5547 14.3194 22.9764 14.762 24.2921C15.2047 25.6078 16.0503 26.7508 17.179 27.5589C18.3077 28.3671 19.6622 28.7993 21.0504 28.7944C22.4386 28.7993 23.7931 28.3671 24.9218 27.5589C26.0505 26.7508 26.8962 25.6078 27.3388 24.2921C27.7814 22.9764 27.7986 21.5547 27.3878 20.2286C26.9771 18.9026 26.1593 17.7396 25.0504 16.9044C24.8123 16.7319 24.6515 16.4727 24.6029 16.1827C24.5542 15.8927 24.6216 15.5952 24.7904 15.3544C24.8741 15.2358 24.9804 15.1348 25.1033 15.0575C25.2261 14.9801 25.3631 14.9279 25.5063 14.9037C25.6494 14.8795 25.796 14.8839 25.9374 14.9167C26.0788 14.9494 26.2124 15.0098 26.3304 15.0944C27.8233 16.1991 28.9294 17.7469 29.4911 19.5171C30.0527 21.2874 30.0412 23.1897 29.4583 24.953C28.8753 26.7163 27.7506 28.2507 26.2444 29.3373C24.7383 30.4239 22.9276 31.0073 21.0704 31.0044H21.0104Z" fill="black"/>
<path d="M22.1004 11.9744C22.0746 11.7072 21.9502 11.4592 21.7515 11.2787C21.5527 11.0982 21.2939 10.9982 21.0254 10.9982C20.757 10.9982 20.4981 11.0982 20.2994 11.2787C20.1006 11.4592 19.9762 11.7072 19.9504 11.9744V18.7344C19.9762 19.0016 20.1006 19.2497 20.2994 19.4302C20.4981 19.6106 20.757 19.7106 21.0254 19.7106C21.2939 19.7106 21.5527 19.6106 21.7515 19.4302C21.9502 19.2497 22.0746 19.0016 22.1004 18.7344V11.9744Z" fill="black"/>
</svg>
